<svg width="13" height="14" viewBox="0 0 13 14" fill="none" xmlns="http://www.w3.org/2000/svg">
<path fill-rule="evenodd" clip-rule="evenodd" d="M7.79268 8.26377C6.36075 9.69569 4.03915 9.69569 2.60723 8.26377C1.1753 6.83185 1.1753 4.51024 2.60723 3.07832C4.03915 1.6464 6.36075 1.6464 7.79268 3.07832C9.2246 4.51024 9.2246 6.83185 7.79268 8.26377ZM8.23306 9.64673C6.27283 11.1461 3.45724 10.9994 1.66442 9.20658C-0.288204 7.25396 -0.288204 4.08813 1.66442 2.13551C3.61704 0.182888 6.78286 0.182888 8.73549 2.13551C10.5282 3.92826 10.675 6.74368 9.17584 8.70389L12.7425 12.2706L11.7997 13.2134L8.23306 9.64673Z" fill="#959595"/>
</svg>
